# xmcd
#
# Track frame offsets: 
#        150
#        32095
#        48560
#        66678
#        77001
#        93740
#        110078
#        130435
#        157802
#        180536
#        203658
#        228782
#
# Disc length: 3437 seconds
#
# Revision: 0
# Processed by: cddbd v1.5.2PL0 Copyright (c) Steve Scherf et al.
# Submitted via: ExactAudioCopy v1.0b3
#
DISCID=a30d6b0c
DTITLE=Torbjörn Carlsson, Björn J:son Lindh, Ted Ström - Vinterhamn
DYEAR=2005
DGENRE=Easy Listening
TTITLE0=Från Skagen
TTITLE1=Genom Sommaren
TTITLE2=Sweet Dreams
TTITLE3=Lake District
TTITLE4=Åt'n Albin
TTITLE5=Warsawa Prelude
TTITLE6=Spread Your Wings
TTITLE7=Adventsland
TTITLE8=Vintersaga
TTITLE9=Vinterhamn
TTITLE10=Härifrån Till Evigheten
TTITLE11=Innan Gryningen
EXTD=
EXTT0=
EXTT1=
EXTT2=
EXTT3=
EXTT4=
EXTT5=
EXTT6=
EXTT7=
EXTT8=
EXTT9=
EXTT10=
EXTT11=
PLAYORDER=
